<svg width="33" height="33" viewBox="0 0 33 33" fill="none" xmlns="http://www.w3.org/2000/svg">
<g clip-path="url(#clip0_961_1419)">
<path d="M18.3127 23.142C17.6161 24.3486 16.5994 25.1261 15.2629 25.4745C13.9263 25.8229 12.6552 25.6491 11.4497 24.9531C10.2442 24.2571 9.46148 23.2375 9.10156 21.8942C8.74163 20.5509 8.90984 19.2763 9.60617 18.0702L15.1637 8.44431C15.666 7.57424 16.4058 7.00829 17.3829 6.74646C18.3604 6.48405 19.2842 6.60402 20.1543 7.10635C21.0249 7.60902 21.5909 8.34876 21.8521 9.32559C22.1142 10.3037 21.9942 11.2275 21.4922 12.0969L16.4922 20.7572C16.1742 21.308 15.7156 21.6637 15.1164 21.8242C14.5171 21.9848 13.9421 21.9061 13.3913 21.5881C12.8411 21.2704 12.486 20.8121 12.326 20.2132C12.1655 19.614 12.244 19.0393 12.5617 18.4891L17.5617 9.82881L18.3273 10.2708L13.3273 18.9311C13.1313 19.2705 13.0818 19.6215 13.1789 19.984C13.2766 20.3467 13.4952 20.6261 13.8347 20.8221C14.1742 21.0181 14.5254 21.0677 14.8885 20.971C15.2509 20.8738 15.5302 20.6555 15.7262 20.3161L20.7262 11.6558C21.1138 10.9843 21.2094 10.2828 21.0129 9.5512C20.8163 8.81959 20.3824 8.25995 19.7109 7.87228C19.0389 7.48428 18.3375 7.38842 17.6068 7.5847C16.8761 7.78098 16.3169 8.21485 15.9292 8.88631L10.3717 18.5122C9.79607 19.5093 9.65652 20.5603 9.95309 21.6653C10.2488 22.7705 10.8922 23.6093 11.8835 24.1816C12.8754 24.7543 13.9248 24.8968 15.0317 24.609C16.1385 24.3212 16.977 23.6848 17.5472 22.7L23.1247 13.0394L23.8902 13.4814L18.3127 23.142Z" fill="#191919"/>
</g>
<defs>
<clipPath id="clip0_961_1419">
<rect width="24" height="24" fill="white" transform="translate(0 20.7847) rotate(-60)"/>
</clipPath>
</defs>
</svg>
