<svg width="25" height="22" viewBox="0 0 25 22" fill="none" xmlns="http://www.w3.org/2000/svg">
<path d="M2.125 20.7059C1.51974 20.7059 1.01447 20.5066 0.60921 20.108C0.20307 19.7085 0 19.2112 0 18.6159V2.09C0 1.49471 0.20307 0.997765 0.60921 0.599177C1.01447 0.199726 1.51974 0 2.125 0H18.9276C19.5329 0 20.0382 0.199726 20.4434 0.599177C20.8496 0.997765 21.0526 1.49471 21.0526 2.09V10.6816C20.9518 10.6713 20.8561 10.664 20.7658 10.6596C20.6754 10.6545 20.5772 10.6519 20.4711 10.6519H19.7368V2.09C19.7368 1.89157 19.6526 1.7091 19.4842 1.54259C19.3149 1.37694 19.1294 1.29412 18.9276 1.29412H2.125C1.92325 1.29412 1.73772 1.37694 1.56842 1.54259C1.4 1.7091 1.31579 1.89157 1.31579 2.09V18.6159C1.31579 18.8143 1.4 18.9968 1.56842 19.1633C1.73772 19.3289 1.92325 19.4118 2.125 19.4118H5.85C5.90439 19.6533 5.96491 19.8781 6.03158 20.086C6.09825 20.2931 6.17632 20.4997 6.26579 20.7059H2.125ZM1.31579 18.1176V19.4118V1.29412V18.1176ZM4.60526 16.1765H5.97632C6.20263 15.4017 6.52719 14.6831 6.95 14.0205C7.37368 13.357 7.88596 12.7816 8.48684 12.2941H4.60526V16.1765ZM4.60526 8.41177H8.55263V4.52941H4.60526V8.41177ZM13.1579 22C12.0649 22 11.1338 21.6217 10.3645 20.8651C9.59517 20.1084 9.21053 19.1926 9.21053 18.1176C9.21053 17.0427 9.59517 16.1269 10.3645 15.3702C11.1338 14.6136 12.0649 14.2353 13.1579 14.2353H15.5368V15.5294H13.1579C12.4342 15.5294 11.8149 15.7831 11.3 16.2904C10.7851 16.7976 10.5272 17.4067 10.5263 18.1176C10.5263 18.8294 10.7842 19.4389 11.3 19.9462C11.8158 20.4535 12.4351 20.7067 13.1579 20.7059H15.5368V22H13.1579ZM12.5 8.41177H16.4474V4.52941H12.5V8.41177ZM13.1579 18.7647V17.4706H21.0526V18.7647H13.1579ZM18.6737 22V20.7059H21.0526C21.7763 20.7059 22.3961 20.4527 22.9118 19.9462C23.4276 19.4398 23.6851 18.8303 23.6842 18.1176C23.6842 17.4059 23.4268 16.7968 22.9118 16.2904C22.3969 15.7839 21.7772 15.5303 21.0526 15.5294H18.6737V14.2353H21.0526C22.1456 14.2353 23.0768 14.6123 23.8461 15.3664C24.6153 16.1204 25 17.0375 25 18.1176C25 19.1926 24.6153 20.1084 23.8461 20.8651C23.0768 21.6217 22.1456 22 21.0526 22H18.6737Z" fill="white"/>
</svg>
