<svg width="23" height="18" viewBox="0 0 23 18" fill="none" xmlns="http://www.w3.org/2000/svg">
<path d="M0 5.78571V2.07643C0 1.485 0.197204 0.991285 0.591611 0.595285C0.985167 0.198428 1.47583 0 2.06361 0H20.9364C21.5242 0 22.0148 0.198428 22.4084 0.595285C22.8028 0.991285 23 1.485 23 2.07643V5.78571H21.7222V2.07643C21.7222 1.87929 21.6404 1.698 21.4769 1.53257C21.3125 1.368 21.1323 1.28571 20.9364 1.28571H2.06361C1.86768 1.28571 1.68752 1.368 1.52311 1.53257C1.35956 1.698 1.27778 1.87929 1.27778 2.07643V5.78571H0ZM2.06361 18C1.47583 18 0.985167 17.802 0.591611 17.406C0.197204 17.0091 0 16.515 0 15.9236V12.2143H1.27778V15.9236C1.27778 16.1207 1.35956 16.302 1.52311 16.4674C1.68752 16.632 1.86768 16.7143 2.06361 16.7143H20.9364C21.1323 16.7143 21.3125 16.632 21.4769 16.4674C21.6404 16.302 21.7222 16.1207 21.7222 15.9236V12.2143H23V15.9236C23 16.515 22.8032 17.0087 22.4097 17.4047C22.0153 17.8016 21.5242 18 20.9364 18H2.06361ZM8.94444 14.7857C9.0637 14.7857 9.17657 14.7557 9.28306 14.6957C9.38954 14.6357 9.47174 14.5457 9.52967 14.4257L14.0556 5.31514L16.0259 9.28029C16.0838 9.40029 16.166 9.49029 16.2725 9.55029C16.379 9.61114 16.4919 9.64157 16.6111 9.64157H23V8.35586H17.0162L14.6395 3.573C14.5824 3.47014 14.5049 3.39514 14.4069 3.348C14.309 3.30171 14.1919 3.27857 14.0556 3.27857C13.9363 3.27857 13.8234 3.30214 13.7169 3.34929C13.6105 3.39643 13.5283 3.47186 13.4703 3.57557L8.94444 12.6836L6.97411 8.71843C6.91619 8.59843 6.83398 8.50843 6.7275 8.44843C6.62102 8.38757 6.50815 8.35714 6.38889 8.35714H0V9.64286H5.98383L8.3605 14.4257C8.41757 14.5457 8.49935 14.6357 8.60583 14.6957C8.71231 14.7557 8.82518 14.7857 8.94444 14.7857Z" fill="white"/>
</svg>
