<svg width="25" height="25" viewBox="0 0 25 25" fill="none" xmlns="http://www.w3.org/2000/svg">
<path d="M12.9635 0C13.2818 0 13.5808 0.0558036 13.8605 0.167411C14.1402 0.279018 14.3861 0.441778 14.5983 0.655692C14.8105 0.869606 14.9744 1.10677 15.0902 1.36719C15.2059 1.6276 15.2686 1.91592 15.2782 2.23214C15.2782 2.53906 15.2204 2.82738 15.1046 3.0971C14.9889 3.36682 14.8201 3.60398 14.5983 3.80859C14.3765 4.01321 14.1305 4.17132 13.8605 4.28292C13.5904 4.39453 13.2915 4.45499 12.9635 4.46429C12.6453 4.46429 12.3463 4.40848 12.0666 4.29688C11.7869 4.18527 11.541 4.02251 11.3288 3.80859C11.1166 3.59468 10.9526 3.35751 10.8369 3.0971C10.7212 2.83668 10.6585 2.54836 10.6488 2.23214C10.6488 1.92522 10.7067 1.6369 10.8224 1.36719C10.9382 1.09747 11.107 0.860305 11.3288 0.655692C11.5506 0.451079 11.7965 0.292969 12.0666 0.181362C12.3366 0.0697545 12.6356 0.0093006 12.9635 0ZM3.02479 5.37109C3.02479 5.09208 3.07783 4.83166 3.18392 4.58984C3.29001 4.34803 3.43468 4.13876 3.61793 3.96205C3.80118 3.78534 4.023 3.64118 4.28341 3.52958C4.54381 3.41797 4.81868 3.36217 5.10802 3.36217C5.39736 3.36217 5.66741 3.41332 5.91817 3.51562C6.16893 3.61793 6.38593 3.76209 6.56918 3.9481C6.75242 4.13411 6.90191 4.34803 7.01765 4.58984C7.13338 4.83166 7.19125 5.09208 7.19125 5.37109C7.19125 5.65011 7.13821 5.91053 7.03212 6.15234C6.92603 6.39416 6.77653 6.60807 6.58364 6.79408C6.39075 6.9801 6.16893 7.12426 5.91817 7.22656C5.66741 7.32887 5.39736 7.38002 5.10802 7.38002C4.81868 7.38002 4.54863 7.32887 4.29787 7.22656C4.04711 7.12426 3.82529 6.98475 3.6324 6.80804C3.4395 6.63132 3.29001 6.41741 3.18392 6.16629C3.07783 5.91518 3.02479 5.65011 3.02479 5.37109ZM1.85297 11.1607C2.11337 11.1607 2.35449 11.2072 2.57631 11.3002C2.79814 11.3932 2.99103 11.5188 3.15499 11.6769C3.31895 11.835 3.45397 12.0257 3.56006 12.2489C3.66615 12.4721 3.71438 12.7046 3.70473 12.9464C3.70473 13.1975 3.65651 13.4301 3.56006 13.644C3.46362 13.8579 3.33341 14.0439 3.16946 14.202C3.0055 14.3601 2.80778 14.4903 2.57631 14.5926C2.34484 14.6949 2.10373 14.7414 1.85297 14.7321C1.59256 14.7321 1.35145 14.6856 1.12962 14.5926C0.907798 14.4996 0.714906 14.3741 0.550948 14.216C0.386989 14.0578 0.251965 13.8672 0.145875 13.644C0.039784 13.4208 -0.00843902 13.1882 0.00120557 12.9464C0.00120557 12.6953 0.0494286 12.4628 0.145875 12.2489C0.24232 12.035 0.372523 11.849 0.536481 11.6908C0.700439 11.5327 0.898153 11.4025 1.12962 11.3002C1.36109 11.1979 1.60221 11.1514 1.85297 11.1607ZM3.48773 20.5218C3.48773 20.3078 3.53113 20.1079 3.61793 19.9219C3.70473 19.7359 3.82047 19.5685 3.96513 19.4196C4.1098 19.2708 4.27858 19.1592 4.47148 19.0848C4.66437 19.0104 4.87655 18.9686 5.10802 18.9593C5.32985 18.9593 5.5372 19.0011 5.7301 19.0848C5.92299 19.1685 6.09659 19.2801 6.2509 19.4196C6.40522 19.5592 6.52095 19.7219 6.59811 19.9079C6.67527 20.0939 6.71867 20.2985 6.72831 20.5218C6.72831 20.7357 6.68491 20.9356 6.59811 21.1217C6.51131 21.3077 6.39557 21.4751 6.2509 21.6239C6.10624 21.7727 5.93745 21.8843 5.74456 21.9587C5.55167 22.0331 5.33949 22.075 5.10802 22.0843C4.88619 22.0843 4.67883 22.0424 4.48594 21.9587C4.29305 21.875 4.11945 21.7634 3.96513 21.6239C3.81082 21.4844 3.69509 21.3216 3.61793 21.1356C3.54077 20.9496 3.49737 20.745 3.48773 20.5218ZM12.9635 22.3214C13.3493 22.3214 13.6772 22.4516 13.9473 22.7121C14.2173 22.9725 14.3524 23.2887 14.3524 23.6607C14.3524 24.0327 14.2173 24.349 13.9473 24.6094C13.6772 24.8698 13.3493 25 12.9635 25C12.5778 25 12.2498 24.8698 11.9798 24.6094C11.7097 24.349 11.5747 24.0327 11.5747 23.6607C11.5747 23.2887 11.7097 22.9725 11.9798 22.7121C12.2498 22.4516 12.5778 22.3214 12.9635 22.3214ZM19.6617 20.5218C19.6617 20.2055 19.7726 19.9405 19.9945 19.7266C20.2163 19.5126 20.4912 19.4057 20.8191 19.4057C21.147 19.4057 21.4219 19.5126 21.6437 19.7266C21.8655 19.9405 21.9764 20.2055 21.9764 20.5218C21.9764 20.838 21.8655 21.1031 21.6437 21.317C21.4219 21.5309 21.147 21.6378 20.8191 21.6378C20.4912 21.6378 20.2163 21.5309 19.9945 21.317C19.7726 21.1031 19.6617 20.838 19.6617 20.5218ZM24.0741 12.0536C24.3249 12.0536 24.5419 12.1419 24.7251 12.3186C24.9084 12.4953 25 12.7046 25 12.9464C25 13.1882 24.9084 13.3975 24.7251 13.5742C24.5419 13.7509 24.3249 13.8393 24.0741 13.8393C23.8234 13.8393 23.6064 13.7509 23.4231 13.5742C23.2399 13.3975 23.1482 13.1882 23.1482 12.9464C23.1482 12.7046 23.2399 12.4953 23.4231 12.3186C23.6064 12.1419 23.8234 12.0536 24.0741 12.0536ZM20.8191 2.91574C21.1663 2.91574 21.4942 2.98084 21.8028 3.11105C22.1114 3.24126 22.3815 3.41797 22.613 3.64118C22.8444 3.8644 23.0277 4.12481 23.1627 4.42243C23.2977 4.72005 23.3652 5.03627 23.3652 5.37109C23.3652 5.70591 23.2977 6.02214 23.1627 6.31975C23.0277 6.61737 22.8444 6.87779 22.613 7.101C22.3815 7.32422 22.1114 7.50093 21.8028 7.63114C21.4942 7.76135 21.1663 7.82645 20.8191 7.82645C20.4719 7.82645 20.1439 7.76135 19.8353 7.63114C19.5267 7.50093 19.2566 7.32422 19.0252 7.101C18.7937 6.87779 18.6105 6.61737 18.4754 6.31975C18.3404 6.02214 18.2729 5.70591 18.2729 5.37109C18.2729 5.03627 18.3404 4.72005 18.4754 4.42243C18.6105 4.12481 18.7937 3.8644 19.0252 3.64118C19.2566 3.41797 19.5267 3.24126 19.8353 3.11105C20.1439 2.98084 20.4719 2.91574 20.8191 2.91574Z" fill="#a3aed0"/>
</svg>
