<svg width="10" height="10" viewBox="0 0 10 10" fill="none" xmlns="http://www.w3.org/2000/svg">
<path d="M9.90862 0.0912215C9.95188 0.134554 9.98146 0.189643 9.99368 0.249645C10.0059 0.309647 10.0002 0.371917 9.97736 0.428722L6.34049 9.5206C6.30844 9.60067 6.25492 9.67034 6.18582 9.72195C6.11672 9.77356 6.03473 9.80511 5.94886 9.81312C5.86298 9.82114 5.77657 9.8053 5.69911 9.76736C5.62166 9.72943 5.55617 9.67085 5.50986 9.5981L3.52362 6.47622L0.401741 4.48997C0.328814 4.44371 0.270085 4.3782 0.232034 4.30068C0.193983 4.22315 0.178089 4.13662 0.186106 4.05063C0.194123 3.96464 0.22574 3.88254 0.277466 3.81338C0.329193 3.74423 0.39902 3.6907 0.479241 3.65872L9.57111 0.0230965C9.62792 0.000229197 9.69019 -0.00544563 9.75019 0.00677698C9.81019 0.0189996 9.86528 0.048581 9.90862 0.0918465V0.0912215ZM4.14737 6.29372L5.87299 9.00497L8.83111 1.60997L4.14737 6.29372ZM8.38924 1.1681L0.994241 4.12622L3.70612 5.85122L8.38924 1.1681Z" fill="white"/>
</svg>
